<svg id="Layer_1" data-name="Layer 1" xmlns="http://www.w3.org/2000/svg" viewBox="0 0 600 225.01"><defs><style>.cls-1{fill:none;}.cls-2{fill:#fff;}</style></defs><title>FZU-L-U-RGB-WHITE</title><rect class="cls-1" width="600" height="225.01"/><polygon class="cls-2" points="366.12 163.33 412.97 81.95 369.32 81.95 373.71 62.35 448.14 62.35 402.91 143.74 448.03 143.74 448.03 163.33 366.12 163.33"/><path class="cls-2" d="M504.57,165.6c-28.06,0-46.2-18.32-46.2-46.68V62.35h25.11v58.19c0,15,7.88,24,21.09,24s21.25-9,21.25-24V62.35h24.94v56.57C550.76,147.28,532.63,165.6,504.57,165.6Z"/><polygon class="cls-2" points="290.49 163.33 290.49 62.35 362.67 62.35 358.51 81.95 315.11 81.95 315.11 109.21 352.49 109.21 348.28 127.99 315.11 127.99 315.11 163.33 290.49 163.33"/><path class="cls-2" d="M235,32.73c-4.79-5.41-12.72-8.14-23.55-8.11-8.66,0-19.12,1.84-30.25,5.26a185.88,185.88,0,0,0-36.25,15.73c-4.09,2.3-8.14,4.76-12.11,7.36A208.14,208.14,0,0,0,92.64,87.22c.43.81.87,1.61,1.32,2.41,1.48,2.64,3.11,5.32,4.84,8a171.05,171.05,0,0,1,17.28-17.71,173.46,173.46,0,0,1,28.86-20.66q6-3.41,12.12-6.3a154.75,154.75,0,0,1,23.73-8.9,112.17,112.17,0,0,1,21.51-3.91c11.17-.88,17.26,2.54,15.06,14.09a114.68,114.68,0,0,1-6.89,23.33,151.72,151.72,0,0,1-7.77,15.86q-3,5.36-6.49,10.56a173.79,173.79,0,0,1-29.13,33.49,173.52,173.52,0,0,1-22.14,16.61,172.52,172.52,0,0,1-21.38,11.51,153.16,153.16,0,0,1-21.19,7.73,114.51,114.51,0,0,1-24,4c-11.73.79-14.39-5.67-12.17-16.65a112.18,112.18,0,0,1,6.48-20.88q1.84-4.44,4-8.82c-.73-.94-1.46-1.87-2.18-2.82-2.12-2.78-4.18-5.63-6.15-8.5a175.54,175.54,0,0,0-9.84,18.83c-4.73,10.63-7.8,20.79-8.87,29.39-1.34,10.75.42,18.94,5.22,24.36s12.72,8.14,23.54,8.11c8.67,0,19.13-1.84,30.25-5.26a185.36,185.36,0,0,0,36.25-15.73,209.62,209.62,0,0,0,21.39-13.79q7.75-5.69,15-12.07a211.53,211.53,0,0,0,27.87-30q4.11-5.4,7.8-11a180.17,180.17,0,0,0,14.37-26c4.73-10.63,7.8-20.79,8.87-29.39C241.54,46.34,239.79,38.15,235,32.73Z"/><path class="cls-2" d="M231.34,138.53a175.54,175.54,0,0,0-9.84-18.83c-2,2.87-4,5.72-6.15,8.5-.72,1-1.46,1.88-2.19,2.81,1.45,2.92,2.81,5.87,4,8.83a111.29,111.29,0,0,1,6.47,20.88c2.23,11-.43,17.44-12.16,16.65a114.51,114.51,0,0,1-24-4c-4.29-1.21-8.59-2.64-12.86-4.27-1.23,1-2.48,1.88-3.73,2.8-5.76,4.23-11.77,8.2-17.91,11.83a181.89,181.89,0,0,0,28.17,11.43c11.13,3.42,21.59,5.24,30.25,5.26,10.83,0,18.76-2.7,23.55-8.11s6.55-13.61,5.22-24.36C239.14,159.32,236.07,149.16,231.34,138.53Z"/><path class="cls-2" d="M197.25,87.22a207.06,207.06,0,0,0-32.69-29.1c-1.4.61-2.8,1.23-4.2,1.89-2.6,1.22-5.19,2.53-7.75,3.9a173.2,173.2,0,0,1,21.19,16,171.15,171.15,0,0,1,17.29,17.71c1.73-2.69,3.36-5.37,4.84-8C196.38,88.83,196.82,88,197.25,87.22Z"/><path class="cls-2" d="M58.55,86.48a181.06,181.06,0,0,0,14.36,26q3.69,5.58,7.81,11a211.53,211.53,0,0,0,27.87,30q3.87,3.42,7.91,6.65c1.29-.54,2.59-1.09,3.87-1.67a162.76,162.76,0,0,0,17.47-9.17,172.5,172.5,0,0,1-15-11.86A173.45,173.45,0,0,1,93.68,104q-3.47-5.2-6.49-10.56a149.76,149.76,0,0,1-7.77-15.86,114.68,114.68,0,0,1-6.89-23.33c-2.2-11.55,3.89-15,15.06-14.09a112.17,112.17,0,0,1,21.51,3.91,150.68,150.68,0,0,1,15.28,5.23q2.07-1.44,4.19-2.83c2.72-1.78,5.5-3.5,8.3-5.16a181.6,181.6,0,0,0-28.18-11.43c-11.12-3.42-21.58-5.24-30.25-5.26-10.82,0-18.75,2.7-23.54,8.11s-6.56,13.61-5.22,24.36C50.75,65.69,53.82,75.85,58.55,86.48Z"/><path class="cls-2" d="M144.94,80.9a26.45,26.45,0,1,0,26.45,26.45A26.45,26.45,0,0,0,144.94,80.9Zm8.95,28.51A10.42,10.42,0,1,1,164.3,99,10.41,10.41,0,0,1,153.89,109.41Z"/></svg>