<?xml version="1.0" encoding="UTF-8" standalone="no"?>
<svg
   width="420"
   height="420"
   stroke="#000"
   fill="none"
   version="1.1"
   id="svg9738"
   sodipodi:docname="Globe_icon.svg"
   inkscape:version="1.1 (c68e22c387, 2021-05-23)"
   xmlns:inkscape="http://www.inkscape.org/namespaces/inkscape"
   xmlns:sodipodi="http://sodipodi.sourceforge.net/DTD/sodipodi-0.dtd"
   xmlns="http://www.w3.org/2000/svg"
   xmlns:svg="http://www.w3.org/2000/svg">
  <defs
     id="defs9742">
    <filter
       style="color-interpolation-filters:sRGB;"
       inkscape:label="Invert"
       id="filter10094"
       x="-0.033318357"
       y="-0.033333552"
       width="1.0666367"
       height="1.0659874">
      <feColorMatrix
         type="hueRotate"
         values="180"
         result="color1"
         id="feColorMatrix10090" />
      <feColorMatrix
         values="-1 0 0 0 1 0 -1 0 0 1 0 0 -1 0 1 -0.21 -0.72 -0.07 1 0 "
         result="color2"
         id="feColorMatrix10092" />
    </filter>
    <filter
       style="color-interpolation-filters:sRGB;"
       inkscape:label="Invert"
       id="filter10118"
       x="0"
       y="-0.0048102564"
       width="1"
       height="1.0147487">
      <feColorMatrix
         type="hueRotate"
         values="180"
         result="color1"
         id="feColorMatrix10114" />
      <feColorMatrix
         values="-1 0 0 0 1 0 -1 0 0 1 0 0 -1 0 1 -0.21 -0.72 -0.07 1 0 "
         result="color2"
         id="feColorMatrix10116" />
    </filter>
  </defs>
  <sodipodi:namedview
     id="namedview9740"
     pagecolor="#ffffff"
     bordercolor="#666666"
     borderopacity="1.0"
     inkscape:pageshadow="2"
     inkscape:pageopacity="0.0"
     inkscape:pagecheckerboard="0"
     showgrid="false"
     inkscape:zoom="1.9571429"
     inkscape:cx="182.66423"
     inkscape:cy="128.24818"
     inkscape:window-width="1920"
     inkscape:window-height="1002"
     inkscape:window-x="-8"
     inkscape:window-y="-8"
     inkscape:window-maximized="1"
     inkscape:current-layer="svg9738" />
  <path
     stroke-width="26"
     d="M209,15a195,195 0 1,0 2,0z"
     id="path9734"
     style="filter:url(#filter10094)" />
  <path
     stroke-width="18"
     d="m210,15v390m195-195H15M59,90a260,260 0 0,0 302,0 m0,240 a260,260 0 0,0-302,0M195,20a250,250 0 0,0 0,382 m30,0 a250,250 0 0,0 0-382"
     id="path9736"
     style="filter:url(#filter10118)" />
</svg>
