<svg width="65" height="64" viewBox="0 0 65 64" fill="none" xmlns="http://www.w3.org/2000/svg">
<path d="M65 0H0V64H65V0Z" fill="white"/>
<path d="M47.9574 34.6938V29.328H53.4036C54.7182 29.328 55.2297 29.7323 55.2297 31.2746V32.7446C55.2297 34.2868 54.7182 34.6938 53.4036 34.6938H47.9574ZM58.2981 33.7031V30.4044C58.2981 27.7215 57.2217 26.6264 54.1533 26.6264H44.8917V37.4758H54.1533C57.2191 37.4785 58.2981 36.3833 58.2981 33.7031Z" fill="#19191A"/>
<path d="M48.0378 12.5238V11.7553C48.0378 10.4888 48.3404 9.71501 49.9549 9.71501H51.5936H53.4384C54.8173 9.71501 55.2324 9.85692 55.2324 11.1234H58.2955V10.1622C58.2955 8.44853 57.6877 7.09637 54.6112 7.09637H51.5936H49.2936C46.533 7.09637 44.889 7.80057 44.889 10.7833V12.5238V14.2642C44.889 17.2443 46.5303 17.9511 49.2936 17.9511H51.5936H54.6112C57.6903 17.9511 58.2955 16.6016 58.2955 14.8853V13.9268H55.2324C55.2324 15.1933 54.8173 15.3352 53.4384 15.3352H51.5936H49.9549C48.3404 15.3352 48.0378 14.5587 48.0378 13.2949V12.5238Z" fill="#19191A"/>
<path d="M9.79715 50.992V50.2101C9.79715 48.9223 10.1051 48.1324 11.7437 48.1324H13.4065H15.2808C16.6811 48.1324 17.1015 48.277 17.1015 49.5649H20.2101V48.5876C20.2101 46.8418 19.5943 45.4655 16.4696 45.4655H13.4065H11.0717C8.26827 45.4655 6.60284 46.1831 6.60284 49.2195V50.9893V52.7592C6.60284 55.7955 8.27095 56.5131 11.0717 56.5131H13.4065H16.4696C19.5943 56.5131 20.2101 55.1395 20.2101 53.3911V52.4164H17.1015C17.1015 53.7043 16.6811 53.8489 15.2808 53.8489H13.4065H11.7437C10.1051 53.8489 9.79715 53.0591 9.79715 51.7712V50.992Z" fill="#19191A"/>
<path d="M28.7623 11.9427C28.7623 10.5986 29.0675 9.77661 30.6928 9.77661H34.3048C35.93 9.77661 36.2353 10.5986 36.2353 11.9427V13.1048C36.2353 14.6738 35.93 15.2709 34.4708 15.2709H30.5241C29.0648 15.2709 28.7596 14.6738 28.7596 13.1048V11.9427H28.7623ZM30.0287 18.0475H34.9742C37.7534 18.0475 39.4082 17.3032 39.4082 14.1356V10.9119C39.4082 7.74703 37.7534 7 34.9742 7H30.0287C27.2494 7 25.5947 7.74971 25.5947 10.9119V14.1356C25.5947 17.3032 27.2468 18.0475 30.0287 18.0475Z" fill="#19191A"/>
<path d="M38.7975 29.1459V26.6291H26.2024V37.4785H38.7279V34.8705H28.8424V33.1328H36.0611V30.8837H28.8424V29.1459H38.7975Z" fill="#19191A"/>
<path d="M15.3638 37.5775L20.9223 26.53H17.4496L13.4065 34.7393L9.3634 26.53H5.89062L11.4492 37.5775H15.3638Z" fill="#19191A"/>
<path d="M35.954 23.5713H33.5924L32.5 24.5406L31.4102 23.5713H29.046L30.8694 25.5446H34.1306L35.954 23.5713Z" fill="#19191A"/>
<path d="M29.6378 56.4167H34.958C37.7346 56.4167 39.0011 55.1422 39.0011 52.4727V45.5646H35.9782V51.7604C35.9782 53.126 35.5283 53.6588 34.2913 53.6588H30.3045C29.0648 53.6588 28.6176 53.126 28.6176 51.7604V45.5646H25.5947V52.4727C25.5947 55.1422 26.8611 56.4167 29.6378 56.4167Z" fill="#19191A"/>
<path d="M9.67131 17.9484V10.0738H9.69808L15.4387 17.9484H20.2101V7.09903H17.1176V15.0031H17.0908L11.3501 7.09903H6.60284V17.9484H9.67131Z" fill="#19191A"/>
<path d="M33.3247 43.4949C33.3247 44.0464 32.8642 44.4936 32.2965 44.4936C31.7289 44.4936 31.2684 44.0464 31.2684 43.4949C31.2684 42.9433 31.7262 42.4988 32.2965 42.4988C32.8642 42.4988 33.3247 42.9433 33.3247 43.4949ZM29.86 43.4949C29.86 44.8015 30.9524 45.8618 32.2965 45.8618C33.6407 45.8618 34.7331 44.8015 34.7331 43.4949C34.7331 42.1882 33.6407 41.1279 32.2965 41.1279C30.9524 41.1279 29.86 42.1882 29.86 43.4949Z" fill="#19191A"/>
</svg>
